# xmcd
# Copyright (C) 1995-1998 Ti Kan
#
# Track frame offsets:
#       150
#       17125
#       33427
#       53735
#       78097
#       97227
#       122045
#       139312
#       177517
#       193045
#       221280
#       250830
#
# Disc length: 3666 seconds
#
# Revision: 0
# Processed by: cddbd v1.5.2PL0 Copyright (c) Steve Scherf et al.
# Submitted via: CD-Import v1.0
#
DISCID=a60e500c
DTITLE=Primal Scream - Give Out But Don't Give Up
DYEAR=1994
DGENRE=
TTITLE0=Jailbird
TTITLE1=Rocks
TTITLE2=(I´m Gonna) Cry Myself Blind
TTITLE3=Funky Jam
TTITLE4=Big Jet Plane
TTITLE5=Free
TTITLE6=Call On Me
TTITLE7=Struttin'
TTITLE8=Sad And Blue
TTITLE9=Give Out But Don´t Give Up
TTITLE10=I'll Be There For You
TTITLE11=Everybody Needs Somebody
EXTD=
EXTT0=
EXTT1=
EXTT2=
EXTT3=
EXTT4=
EXTT5=
EXTT6=
EXTT7=
EXTT8=
EXTT9=
EXTT10=
EXTT11=
PLAYORDER=
